{
  "accessors": [
    {
      "name": "POLYLINE_1_0_positions",
      "componentType": 5126,
      "count": 3440,
      "min": [
        -305.74798583984375,
        -305.74798583984375,
        0.07999999821186066
      ],
      "max": [
        305.74798583984375,
        305.74798583984375,
        0.09001000225543976
      ],
      "type": "VEC3",
      "bufferView": 0,
      "byteOffset": 0
    },
    {
      "name": "POLYLINE_1_0_texcoords",
      "componentType": 5126,
      "count": 3440,
      "min": [
        0.000009765624781721272,
        0.000009765624781721272
      ],
      "max": [
        0.9374902248382568,
        0.031240234151482582
      ],
      "type": "VEC2",
      "bufferView": 1,
      "byteOffset": 0
    },
    {
      "name": "POLYLINE_1_0_indices",
      "componentType": 5123,
      "count": 5160,
      "min": [
        0
      ],
      "max": [
        3439
      ],
      "type": "SCALAR",
      "bufferView": 2,
      "byteOffset": 0
    },
    {
      "name": "POLYGON_1_0_positions",
      "componentType": 5126,
      "count": 24,
      "min": [
        -305.4059753417969,
        -305.4059753417969,
        -8
      ],
      "max": [
        305.4059753417969,
        305.4059753417969,
        0
      ],
      "type": "VEC3",
      "bufferView": 0,
      "byteOffset": 41280
    },
    {
      "name": "POLYGON_1_0_texcoords",
      "componentType": 5126,
      "count": 24,
      "min": [
        0.5,
        0
      ],
      "max": [
        0.7499902248382568,
        0.03125
      ],
      "type": "VEC2",
      "bufferView": 1,
      "byteOffset": 27520
    },
    {
      "name": "POLYGON_1_0_indices",
      "componentType": 5123,
      "count": 36,
      "min": [
        0
      ],
      "max": [
        23
      ],
      "type": "SCALAR",
      "bufferView": 2,
      "byteOffset": 10320
    },
    {
      "name": "FONT_1_0_positions",
      "componentType": 5126,
      "count": 4392,
      "min": [
        -348.66680908203125,
        -657.7140502929688,
        0
      ],
      "max": [
        486.6628112792969,
        437.1675109863281,
        60.16651916503906
      ],
      "type": "VEC3",
      "bufferView": 0,
      "byteOffset": 41568
    },
    {
      "name": "FONT_1_0_texcoords",
      "componentType": 5126,
      "count": 4392,
      "min": [
        0,
        0.125
      ],
      "max": [
        1,
        0.5
      ],
      "type": "VEC2",
      "bufferView": 1,
      "byteOffset": 27712
    },
    {
      "name": "FONT_1_0_indices",
      "componentType": 5123,
      "count": 6588,
      "min": [
        0
      ],
      "max": [
        4391
      ],
      "type": "SCALAR",
      "bufferView": 2,
      "byteOffset": 10392
    }
  ],
  "asset": {
    "generator": "obj2gltf",
    "version": "2.0"
  },
  "buffers": [
    {
      "name": "16_19378_24556",
      "byteLength": 1552848,
      "uri": "data:application/octet-stream;base64,"
    }
  ],
  "bufferViews": [
    {
      "name": "bufferView_0",
      "buffer": 0,
      "byteLength": 94272,
      "byteOffset": 0,
      "byteStride": 12,
      "target": 34962
    },
    {
      "name": "bufferView_1",
      "buffer": 0,
      "byteLength": 62848,
      "byteOffset": 94272,
      "byteStride": 8,
      "target": 34962
    },
    {
      "name": "bufferView_2",
      "buffer": 0,
      "byteLength": 23568,
      "byteOffset": 157120,
      "target": 34963
    },
    {
      "buffer": 0,
      "byteOffset": 180688,
      "byteLength": 49659
    },
    {
      "buffer": 0,
      "byteOffset": 230347,
      "byteLength": 1322498
    }
  ],
  "images": [
    {
      "name": "sheet_ground",
      "mimeType": "image/png",
      "bufferView": 3
    },
    {
      "name": "sheet_font",
      "mimeType": "image/png",
      "bufferView": 4
    }
  ],
  "materials": [
    {
      "name": "sheet_ground",
      "pbrMetallicRoughness": {
        "baseColorTexture": {
          "index": 0
        },
        "baseColorFactor": [
          1,
          1,
          1,
          1
        ],
        "metallicFactor": 0,
        "roughnessFactor": 1
      },
      "emissiveFactor": [
        0,
        0,
        0
      ],
      "alphaMode": "OPAQUE",
      "doubleSided": false
    },
    {
      "name": "sheet_font",
      "pbrMetallicRoughness": {
        "baseColorTexture": {
          "index": 1
        },
        "baseColorFactor": [
          1,
          1,
          1,
          1
        ],
        "metallicFactor": 0,
        "roughnessFactor": 1
      },
      "emissiveFactor": [
        0,
        0,
        0
      ],
      "alphaMode": "OPAQUE",
      "doubleSided": false
    }
  ],
  "meshes": [
    {
      "name": "POLYLINE_1",
      "primitives": [
        {
          "attributes": {
            "POSITION": 0,
            "TEXCOORD_0": 1
          },
          "indices": 2,
          "material": 0,
          "mode": 4
        }
      ]
    },
    {
      "name": "POLYGON_1",
      "primitives": [
        {
          "attributes": {
            "POSITION": 3,
            "TEXCOORD_0": 4
          },
          "indices": 5,
          "material": 0,
          "mode": 4
        }
      ]
    },
    {
      "name": "FONT_1",
      "primitives": [
        {
          "attributes": {
            "POSITION": 6,
            "TEXCOORD_0": 7
          },
          "indices": 8,
          "material": 1,
          "mode": 4
        }
      ]
    }
  ],
  "nodes": [
    {
      "name": "POLYLINE",
      "mesh": 0
    },
    {
      "name": "POLYGON",
      "mesh": 1
    },
    {
      "name": "FONT",
      "mesh": 2
    }
  ],
  "samplers": [
    {
      "magFilter": 9729,
      "minFilter": 9986,
      "wrapS": 10497,
      "wrapT": 10497
    }
  ],
  "scene": 0,
  "scenes": [
    {
      "nodes": [
        0,
        1,
        2
      ]
    }
  ],
  "textures": [
    {
      "name": "sheet_ground",
      "sampler": 0,
      "source": 0
    },
    {
      "name": "sheet_font",
      "sampler": 0,
      "source": 1
    }
  ]
}
