{
  "accessors": [
    {
      "name": "POLYLINE_1_0_positions",
      "componentType": 5126,
      "count": 1464,
      "min": [
        -305.74798583984375,
        -305.74798583984375,
        0.07000000029802322
      ],
      "max": [
        305.74798583984375,
        305.74798583984375,
        0.09001000225543976
      ],
      "type": "VEC3",
      "bufferView": 0,
      "byteOffset": 0
    },
    {
      "name": "POLYLINE_1_0_texcoords",
      "componentType": 5126,
      "count": 1464,
      "min": [
        0.21875976026058197,
        0.000009765624781721272
      ],
      "max": [
        0.9999902248382568,
        0.06242750585079193
      ],
      "type": "VEC2",
      "bufferView": 1,
      "byteOffset": 0
    },
    {
      "name": "POLYLINE_1_0_indices",
      "componentType": 5123,
      "count": 2196,
      "min": [
        0
      ],
      "max": [
        1463
      ],
      "type": "SCALAR",
      "bufferView": 2,
      "byteOffset": 0
    },
    {
      "name": "POLYGON_1_0_positions",
      "componentType": 5126,
      "count": 24,
      "min": [
        -305.4059753417969,
        -305.4059753417969,
        -8
      ],
      "max": [
        305.4059753417969,
        305.4059753417969,
        0
      ],
      "type": "VEC3",
      "bufferView": 0,
      "byteOffset": 17568
    },
    {
      "name": "POLYGON_1_0_texcoords",
      "componentType": 5126,
      "count": 24,
      "min": [
        0.5,
        0
      ],
      "max": [
        0.7499902248382568,
        0.03125
      ],
      "type": "VEC2",
      "bufferView": 1,
      "byteOffset": 11712
    },
    {
      "name": "POLYGON_1_0_indices",
      "componentType": 5123,
      "count": 36,
      "min": [
        0
      ],
      "max": [
        23
      ],
      "type": "SCALAR",
      "bufferView": 2,
      "byteOffset": 4392
    },
    {
      "name": "FONT_1_0_positions",
      "componentType": 5126,
      "count": 712,
      "min": [
        -692.0658569335938,
        -546.9279174804688,
        0
      ],
      "max": [
        272.8725891113281,
        477.8381652832031,
        19.24001121520996
      ],
      "type": "VEC3",
      "bufferView": 0,
      "byteOffset": 17856
    },
    {
      "name": "FONT_1_0_texcoords",
      "componentType": 5126,
      "count": 712,
      "min": [
        0,
        0.125
      ],
      "max": [
        1,
        0.5
      ],
      "type": "VEC2",
      "bufferView": 1,
      "byteOffset": 11904
    },
    {
      "name": "FONT_1_0_indices",
      "componentType": 5123,
      "count": 1068,
      "min": [
        0
      ],
      "max": [
        711
      ],
      "type": "SCALAR",
      "bufferView": 2,
      "byteOffset": 4464
    }
  ],
  "asset": {
    "generator": "obj2gltf",
    "version": "2.0"
  },
  "buffers": [
    {
      "name": "16_19379_24562",
      "byteLength": 1422760,
      "uri": "data:application/octet-stream;base64,"
    }
  ],
  "bufferViews": [
    {
      "name": "bufferView_0",
      "buffer": 0,
      "byteLength": 26400,
      "byteOffset": 0,
      "byteStride": 12,
      "target": 34962
    },
    {
      "name": "bufferView_1",
      "buffer": 0,
      "byteLength": 17600,
      "byteOffset": 26400,
      "byteStride": 8,
      "target": 34962
    },
    {
      "name": "bufferView_2",
      "buffer": 0,
      "byteLength": 6600,
      "byteOffset": 44000,
      "target": 34963
    },
    {
      "buffer": 0,
      "byteOffset": 50600,
      "byteLength": 49659
    },
    {
      "buffer": 0,
      "byteOffset": 100259,
      "byteLength": 1322498
    }
  ],
  "images": [
    {
      "name": "sheet_ground",
      "mimeType": "image/png",
      "bufferView": 3
    },
    {
      "name": "sheet_font",
      "mimeType": "image/png",
      "bufferView": 4
    }
  ],
  "materials": [
    {
      "name": "sheet_ground",
      "pbrMetallicRoughness": {
        "baseColorTexture": {
          "index": 0
        },
        "baseColorFactor": [
          1,
          1,
          1,
          1
        ],
        "metallicFactor": 0,
        "roughnessFactor": 1
      },
      "emissiveFactor": [
        0,
        0,
        0
      ],
      "alphaMode": "OPAQUE",
      "doubleSided": false
    },
    {
      "name": "sheet_font",
      "pbrMetallicRoughness": {
        "baseColorTexture": {
          "index": 1
        },
        "baseColorFactor": [
          1,
          1,
          1,
          1
        ],
        "metallicFactor": 0,
        "roughnessFactor": 1
      },
      "emissiveFactor": [
        0,
        0,
        0
      ],
      "alphaMode": "OPAQUE",
      "doubleSided": false
    }
  ],
  "meshes": [
    {
      "name": "POLYLINE_1",
      "primitives": [
        {
          "attributes": {
            "POSITION": 0,
            "TEXCOORD_0": 1
          },
          "indices": 2,
          "material": 0,
          "mode": 4
        }
      ]
    },
    {
      "name": "POLYGON_1",
      "primitives": [
        {
          "attributes": {
            "POSITION": 3,
            "TEXCOORD_0": 4
          },
          "indices": 5,
          "material": 0,
          "mode": 4
        }
      ]
    },
    {
      "name": "FONT_1",
      "primitives": [
        {
          "attributes": {
            "POSITION": 6,
            "TEXCOORD_0": 7
          },
          "indices": 8,
          "material": 1,
          "mode": 4
        }
      ]
    }
  ],
  "nodes": [
    {
      "name": "POLYLINE",
      "mesh": 0
    },
    {
      "name": "POLYGON",
      "mesh": 1
    },
    {
      "name": "FONT",
      "mesh": 2
    }
  ],
  "samplers": [
    {
      "magFilter": 9729,
      "minFilter": 9986,
      "wrapS": 10497,
      "wrapT": 10497
    }
  ],
  "scene": 0,
  "scenes": [
    {
      "nodes": [
        0,
        1,
        2
      ]
    }
  ],
  "textures": [
    {
      "name": "sheet_ground",
      "sampler": 0,
      "source": 0
    },
    {
      "name": "sheet_font",
      "sampler": 0,
      "source": 1
    }
  ]
}
