{
  "accessors": [
    {
      "name": "POLYLINE_1_0_positions",
      "componentType": 5126,
      "count": 2680,
      "min": [
        -305.74798583984375,
        -305.74798583984375,
        0.07999999821186066
      ],
      "max": [
        287.3516540527344,
        305.74798583984375,
        0.09001000225543976
      ],
      "type": "VEC3",
      "bufferView": 0,
      "byteOffset": 0
    },
    {
      "name": "POLYLINE_1_0_texcoords",
      "componentType": 5126,
      "count": 2680,
      "min": [
        0.000009765624781721272,
        0.000009765624781721272
      ],
      "max": [
        0.9374902248382568,
        0.06232065707445145
      ],
      "type": "VEC2",
      "bufferView": 1,
      "byteOffset": 0
    },
    {
      "name": "POLYLINE_1_0_indices",
      "componentType": 5123,
      "count": 4020,
      "min": [
        0
      ],
      "max": [
        2679
      ],
      "type": "SCALAR",
      "bufferView": 2,
      "byteOffset": 0
    },
    {
      "name": "POLYGON_1_0_positions",
      "componentType": 5126,
      "count": 24,
      "min": [
        -305.4059753417969,
        -305.4059753417969,
        -8
      ],
      "max": [
        305.4059753417969,
        305.4059753417969,
        0
      ],
      "type": "VEC3",
      "bufferView": 0,
      "byteOffset": 32160
    },
    {
      "name": "POLYGON_1_0_texcoords",
      "componentType": 5126,
      "count": 24,
      "min": [
        0.5,
        0
      ],
      "max": [
        0.7499902248382568,
        0.03125
      ],
      "type": "VEC2",
      "bufferView": 1,
      "byteOffset": 21440
    },
    {
      "name": "POLYGON_1_0_indices",
      "componentType": 5123,
      "count": 36,
      "min": [
        0
      ],
      "max": [
        23
      ],
      "type": "SCALAR",
      "bufferView": 2,
      "byteOffset": 8040
    },
    {
      "name": "POI_1_0_positions",
      "componentType": 5126,
      "count": 48,
      "min": [
        -184.47286987304688,
        -0.05000000074505806,
        0
      ],
      "max": [
        2,
        118.93649291992188,
        4
      ],
      "type": "VEC3",
      "bufferView": 0,
      "byteOffset": 32448
    },
    {
      "name": "POI_1_0_texcoords",
      "componentType": 5126,
      "count": 48,
      "min": [
        0.34375,
        0
      ],
      "max": [
        0.71875,
        0.1875
      ],
      "type": "VEC2",
      "bufferView": 1,
      "byteOffset": 21632
    },
    {
      "name": "POI_1_0_indices",
      "componentType": 5123,
      "count": 72,
      "min": [
        0
      ],
      "max": [
        47
      ],
      "type": "SCALAR",
      "bufferView": 2,
      "byteOffset": 8112
    },
    {
      "name": "FONT_1_0_positions",
      "componentType": 5126,
      "count": 2968,
      "min": [
        -403.3759460449219,
        -328.6014709472656,
        0
      ],
      "max": [
        45.1754150390625,
        370.5743713378906,
        21
      ],
      "type": "VEC3",
      "bufferView": 0,
      "byteOffset": 33024
    },
    {
      "name": "FONT_1_0_texcoords",
      "componentType": 5126,
      "count": 2968,
      "min": [
        0,
        0.125
      ],
      "max": [
        1,
        0.5
      ],
      "type": "VEC2",
      "bufferView": 1,
      "byteOffset": 22016
    },
    {
      "name": "FONT_1_0_indices",
      "componentType": 5123,
      "count": 4452,
      "min": [
        0
      ],
      "max": [
        2967
      ],
      "type": "SCALAR",
      "bufferView": 2,
      "byteOffset": 8256
    }
  ],
  "asset": {
    "generator": "obj2gltf",
    "version": "2.0"
  },
  "buffers": [
    {
      "name": "16_19383_24562",
      "byteLength": 2183848,
      "uri": "data:application/octet-stream;base64,"
    }
  ],
  "bufferViews": [
    {
      "name": "bufferView_0",
      "buffer": 0,
      "byteLength": 68640,
      "byteOffset": 0,
      "byteStride": 12,
      "target": 34962
    },
    {
      "name": "bufferView_1",
      "buffer": 0,
      "byteLength": 45760,
      "byteOffset": 68640,
      "byteStride": 8,
      "target": 34962
    },
    {
      "name": "bufferView_2",
      "buffer": 0,
      "byteLength": 17160,
      "byteOffset": 114400,
      "target": 34963
    },
    {
      "buffer": 0,
      "byteOffset": 131560,
      "byteLength": 49659
    },
    {
      "buffer": 0,
      "byteOffset": 181219,
      "byteLength": 680130
    },
    {
      "buffer": 0,
      "byteOffset": 861349,
      "byteLength": 1322498
    }
  ],
  "images": [
    {
      "name": "sheet_ground",
      "mimeType": "image/png",
      "bufferView": 3
    },
    {
      "name": "sheet_poi",
      "mimeType": "image/png",
      "bufferView": 4
    },
    {
      "name": "sheet_font",
      "mimeType": "image/png",
      "bufferView": 5
    }
  ],
  "materials": [
    {
      "name": "sheet_ground",
      "pbrMetallicRoughness": {
        "baseColorTexture": {
          "index": 0
        },
        "baseColorFactor": [
          1,
          1,
          1,
          1
        ],
        "metallicFactor": 0,
        "roughnessFactor": 1
      },
      "emissiveFactor": [
        0,
        0,
        0
      ],
      "alphaMode": "OPAQUE",
      "doubleSided": false
    },
    {
      "name": "sheet_poi",
      "pbrMetallicRoughness": {
        "baseColorTexture": {
          "index": 1
        },
        "baseColorFactor": [
          1,
          1,
          1,
          1
        ],
        "metallicFactor": 0,
        "roughnessFactor": 1
      },
      "emissiveFactor": [
        0,
        0,
        0
      ],
      "alphaMode": "OPAQUE",
      "doubleSided": false
    },
    {
      "name": "sheet_font",
      "pbrMetallicRoughness": {
        "baseColorTexture": {
          "index": 2
        },
        "baseColorFactor": [
          1,
          1,
          1,
          1
        ],
        "metallicFactor": 0,
        "roughnessFactor": 1
      },
      "emissiveFactor": [
        0,
        0,
        0
      ],
      "alphaMode": "OPAQUE",
      "doubleSided": false
    }
  ],
  "meshes": [
    {
      "name": "POLYLINE_1",
      "primitives": [
        {
          "attributes": {
            "POSITION": 0,
            "TEXCOORD_0": 1
          },
          "indices": 2,
          "material": 0,
          "mode": 4
        }
      ]
    },
    {
      "name": "POLYGON_1",
      "primitives": [
        {
          "attributes": {
            "POSITION": 3,
            "TEXCOORD_0": 4
          },
          "indices": 5,
          "material": 0,
          "mode": 4
        }
      ]
    },
    {
      "name": "POI_1",
      "primitives": [
        {
          "attributes": {
            "POSITION": 6,
            "TEXCOORD_0": 7
          },
          "indices": 8,
          "material": 1,
          "mode": 4
        }
      ]
    },
    {
      "name": "FONT_1",
      "primitives": [
        {
          "attributes": {
            "POSITION": 9,
            "TEXCOORD_0": 10
          },
          "indices": 11,
          "material": 2,
          "mode": 4
        }
      ]
    }
  ],
  "nodes": [
    {
      "name": "POLYLINE",
      "mesh": 0
    },
    {
      "name": "POLYGON",
      "mesh": 1
    },
    {
      "name": "POI",
      "mesh": 2
    },
    {
      "name": "FONT",
      "mesh": 3
    }
  ],
  "samplers": [
    {
      "magFilter": 9729,
      "minFilter": 9986,
      "wrapS": 10497,
      "wrapT": 10497
    }
  ],
  "scene": 0,
  "scenes": [
    {
      "nodes": [
        0,
        1,
        2,
        3
      ]
    }
  ],
  "textures": [
    {
      "name": "sheet_ground",
      "sampler": 0,
      "source": 0
    },
    {
      "name": "sheet_poi",
      "sampler": 0,
      "source": 1
    },
    {
      "name": "sheet_font",
      "sampler": 0,
      "source": 2
    }
  ]
}
