{
  "accessors": [
    {
      "name": "POLYLINE_1_0_positions",
      "componentType": 5126,
      "count": 4256,
      "min": [
        -305.74798583984375,
        -305.74798583984375,
        0.07999999821186066
      ],
      "max": [
        305.74798583984375,
        305.74798583984375,
        0.0949999988079071
      ],
      "type": "VEC3",
      "bufferView": 0,
      "byteOffset": 0
    },
    {
      "name": "POLYLINE_1_0_texcoords",
      "componentType": 5126,
      "count": 4256,
      "min": [
        0.000009765624781721272,
        0.0024121094029396772
      ],
      "max": [
        0.9374902248382568,
        0.06249023601412773
      ],
      "type": "VEC2",
      "bufferView": 1,
      "byteOffset": 0
    },
    {
      "name": "POLYLINE_1_0_indices",
      "componentType": 5123,
      "count": 6384,
      "min": [
        0
      ],
      "max": [
        4255
      ],
      "type": "SCALAR",
      "bufferView": 2,
      "byteOffset": 0
    },
    {
      "name": "POLYGON_1_0_positions",
      "componentType": 5126,
      "count": 24,
      "min": [
        -305.4059753417969,
        -305.4059753417969,
        -8
      ],
      "max": [
        305.4059753417969,
        305.4059753417969,
        0
      ],
      "type": "VEC3",
      "bufferView": 0,
      "byteOffset": 51072
    },
    {
      "name": "POLYGON_1_0_texcoords",
      "componentType": 5126,
      "count": 24,
      "min": [
        0.5,
        0
      ],
      "max": [
        0.7499902248382568,
        0.03125
      ],
      "type": "VEC2",
      "bufferView": 1,
      "byteOffset": 34048
    },
    {
      "name": "POLYGON_1_0_indices",
      "componentType": 5123,
      "count": 36,
      "min": [
        0
      ],
      "max": [
        23
      ],
      "type": "SCALAR",
      "bufferView": 2,
      "byteOffset": 12768
    },
    {
      "name": "POI_1_0_positions",
      "componentType": 5126,
      "count": 48,
      "min": [
        127.27545928955078,
        -26.127077102661133,
        0
      ],
      "max": [
        286.52581787109375,
        245.27772521972656,
        4
      ],
      "type": "VEC3",
      "bufferView": 0,
      "byteOffset": 51360
    },
    {
      "name": "POI_1_0_texcoords",
      "componentType": 5126,
      "count": 48,
      "min": [
        0.4375,
        0
      ],
      "max": [
        0.71875,
        0.03125
      ],
      "type": "VEC2",
      "bufferView": 1,
      "byteOffset": 34240
    },
    {
      "name": "POI_1_0_indices",
      "componentType": 5123,
      "count": 72,
      "min": [
        0
      ],
      "max": [
        47
      ],
      "type": "SCALAR",
      "bufferView": 2,
      "byteOffset": 12840
    },
    {
      "name": "FONT_1_0_positions",
      "componentType": 5126,
      "count": 6088,
      "min": [
        -1348.4853515625,
        -521.49072265625,
        0
      ],
      "max": [
        774.4214477539062,
        1155.0557861328125,
        60.16651916503906
      ],
      "type": "VEC3",
      "bufferView": 0,
      "byteOffset": 51936
    },
    {
      "name": "FONT_1_0_texcoords",
      "componentType": 5126,
      "count": 6088,
      "min": [
        0,
        0.125
      ],
      "max": [
        1,
        0.5
      ],
      "type": "VEC2",
      "bufferView": 1,
      "byteOffset": 34624
    },
    {
      "name": "FONT_1_0_indices",
      "componentType": 5123,
      "count": 9132,
      "min": [
        0
      ],
      "max": [
        6087
      ],
      "type": "SCALAR",
      "bufferView": 2,
      "byteOffset": 12984
    }
  ],
  "asset": {
    "generator": "obj2gltf",
    "version": "2.0"
  },
  "buffers": [
    {
      "name": "16_19379_24556",
      "byteLength": 2291856,
      "uri": "data:application/octet-stream;base64,"
    }
  ],
  "bufferViews": [
    {
      "name": "bufferView_0",
      "buffer": 0,
      "byteLength": 124992,
      "byteOffset": 0,
      "byteStride": 12,
      "target": 34962
    },
    {
      "name": "bufferView_1",
      "buffer": 0,
      "byteLength": 83328,
      "byteOffset": 124992,
      "byteStride": 8,
      "target": 34962
    },
    {
      "name": "bufferView_2",
      "buffer": 0,
      "byteLength": 31248,
      "byteOffset": 208320,
      "target": 34963
    },
    {
      "buffer": 0,
      "byteOffset": 239568,
      "byteLength": 49659
    },
    {
      "buffer": 0,
      "byteOffset": 289227,
      "byteLength": 680130
    },
    {
      "buffer": 0,
      "byteOffset": 969357,
      "byteLength": 1322498
    }
  ],
  "images": [
    {
      "name": "sheet_ground",
      "mimeType": "image/png",
      "bufferView": 3
    },
    {
      "name": "sheet_poi",
      "mimeType": "image/png",
      "bufferView": 4
    },
    {
      "name": "sheet_font",
      "mimeType": "image/png",
      "bufferView": 5
    }
  ],
  "materials": [
    {
      "name": "sheet_ground",
      "pbrMetallicRoughness": {
        "baseColorTexture": {
          "index": 0
        },
        "baseColorFactor": [
          1,
          1,
          1,
          1
        ],
        "metallicFactor": 0,
        "roughnessFactor": 1
      },
      "emissiveFactor": [
        0,
        0,
        0
      ],
      "alphaMode": "OPAQUE",
      "doubleSided": false
    },
    {
      "name": "sheet_poi",
      "pbrMetallicRoughness": {
        "baseColorTexture": {
          "index": 1
        },
        "baseColorFactor": [
          1,
          1,
          1,
          1
        ],
        "metallicFactor": 0,
        "roughnessFactor": 1
      },
      "emissiveFactor": [
        0,
        0,
        0
      ],
      "alphaMode": "OPAQUE",
      "doubleSided": false
    },
    {
      "name": "sheet_font",
      "pbrMetallicRoughness": {
        "baseColorTexture": {
          "index": 2
        },
        "baseColorFactor": [
          1,
          1,
          1,
          1
        ],
        "metallicFactor": 0,
        "roughnessFactor": 1
      },
      "emissiveFactor": [
        0,
        0,
        0
      ],
      "alphaMode": "OPAQUE",
      "doubleSided": false
    }
  ],
  "meshes": [
    {
      "name": "POLYLINE_1",
      "primitives": [
        {
          "attributes": {
            "POSITION": 0,
            "TEXCOORD_0": 1
          },
          "indices": 2,
          "material": 0,
          "mode": 4
        }
      ]
    },
    {
      "name": "POLYGON_1",
      "primitives": [
        {
          "attributes": {
            "POSITION": 3,
            "TEXCOORD_0": 4
          },
          "indices": 5,
          "material": 0,
          "mode": 4
        }
      ]
    },
    {
      "name": "POI_1",
      "primitives": [
        {
          "attributes": {
            "POSITION": 6,
            "TEXCOORD_0": 7
          },
          "indices": 8,
          "material": 1,
          "mode": 4
        }
      ]
    },
    {
      "name": "FONT_1",
      "primitives": [
        {
          "attributes": {
            "POSITION": 9,
            "TEXCOORD_0": 10
          },
          "indices": 11,
          "material": 2,
          "mode": 4
        }
      ]
    }
  ],
  "nodes": [
    {
      "name": "POLYLINE",
      "mesh": 0
    },
    {
      "name": "POLYGON",
      "mesh": 1
    },
    {
      "name": "POI",
      "mesh": 2
    },
    {
      "name": "FONT",
      "mesh": 3
    }
  ],
  "samplers": [
    {
      "magFilter": 9729,
      "minFilter": 9986,
      "wrapS": 10497,
      "wrapT": 10497
    }
  ],
  "scene": 0,
  "scenes": [
    {
      "nodes": [
        0,
        1,
        2,
        3
      ]
    }
  ],
  "textures": [
    {
      "name": "sheet_ground",
      "sampler": 0,
      "source": 0
    },
    {
      "name": "sheet_poi",
      "sampler": 0,
      "source": 1
    },
    {
      "name": "sheet_font",
      "sampler": 0,
      "source": 2
    }
  ]
}
